<?xml version="1.0" encoding="utf-8"?>
<!-- Generator: Adobe Illustrator 24.0.1, SVG Export Plug-In . SVG Version: 6.00 Build 0)  -->
<svg version="1.1" id="Layer_1" xmlns="http://www.w3.org/2000/svg" xmlns:xlink="http://www.w3.org/1999/xlink" x="0px" y="0px"
	 viewBox="0 0 2000 2000" style="enable-background:new 0 0 2000 2000;" xml:space="preserve">
<style type="text/css">
	.st0{fill:#FF7F03;}
	.st1{fill:#D80000;}
	.st2{fill:#FFC800;}
	.st3{fill:#16C900;}
	.st4{fill:#0297FF;}
	.st5{fill:#2E0DBB;}
	.st6{fill:#FEFFFF;}
</style>
<g>
	<rect x="0" y="1331.8" class="st0" width="2000" height="333.3"/>
	<rect y="1666.7" class="st1" width="2000" height="333.3"/>
	<rect y="1000" class="st2" width="2000" height="333.3"/>
	<rect x="0" y="666.7" class="st3" width="2000" height="333.3"/>
	<rect x="0" y="333.3" class="st4" width="2000" height="333.3"/>
	<rect x="0" class="st5" width="2000" height="333.3"/>
	<path d="M1428.4,1245l52.4-132.6h151.4l-71.9-201.2l89.9-227.3l257.5,683.6h-189.9l-44-122.4H1428.4z"/>
	<path class="st6" d="M1266.4,1367.5l275.6-683.6l-182.7,0l-188.5,441.7l-134.1-441.7H896.3l-144,441.7L650.8,924.3l-91.9,283
		l93.3,160.1H832l130.1-396.1l124,396.1H1266.4z"/>
	<path d="M265.7,1132.8h112.5c34.1,0,64.5-3.8,91.1-11.4l29.1-89.7l81.3-250.6c-6.2-9.8-13.3-19.1-21.2-27.9
		c-41.8-46.2-102.9-69.3-183.3-69.3h-283v683.6h173.4V1132.8z M414.6,841.2c16.3,16.4,24.5,38.4,24.5,65.9c0,27.7-7.2,49.7-21.5,66
		c-15.7,18.1-44.7,27.1-86.9,27.1h-65V816.5h65.5C370.5,816.5,398.3,824.7,414.6,841.2z"/>
</g>
</svg>
